<?xml version="1.0" encoding="UTF-8"?>
<svg id="Layer_1" data-name="Layer 1" xmlns="http://www.w3.org/2000/svg" viewBox="0 0 565.54 97.1">
  <path d="M64.77,35.85c0,4.87-.72,9.21-2.17,13.03-1.45,3.82-3.53,7.04-6.24,9.66-2.71,2.62-6.01,4.62-9.89,6.01-3.88,1.39-8.26,2.08-13.12,2.08H0V4.99h33.36c10.1,0,17.86,2.54,23.28,7.62,5.42,5.08,8.13,12.83,8.13,23.24ZM40.01,35.85c0-1.91-.15-3.8-.46-5.68-.31-1.88-.88-3.59-1.71-5.13-.83-1.54-1.99-2.79-3.46-3.74-1.48-.95-3.36-1.43-5.64-1.43h-5.08v31.88h4.9c2.22,0,4.07-.46,5.54-1.39,1.48-.92,2.66-2.13,3.56-3.6.89-1.48,1.51-3.17,1.85-5.08.34-1.91.51-3.85.51-5.82Z" fill="#e56e28"/>
  <path d="M65.56,13.58V0h22.27v13.58h-22.27ZM65.56,66.62V19.59h22.27v47.03h-22.27Z" fill="#e56e28"/>
  <path d="M144.7,63.09c0,4.62-.77,8.52-2.31,11.69-1.54,3.17-3.67,5.74-6.38,7.72-2.71,1.97-5.88,3.39-9.52,4.25-3.64.86-7.55,1.29-11.73,1.29-3.82,0-7.61-.17-11.37-.51-3.76-.34-7.48-1.03-11.18-2.08l.55-14.6c4.5,2.46,9.64,3.7,15.43,3.7,4.44,0,7.91-.88,10.44-2.63,2.52-1.76,3.79-4.7,3.79-8.82v-3.51c-1.91,2.46-4.08,4.34-6.51,5.64-2.43,1.29-5.22,1.94-8.36,1.94-3.33,0-6.21-.65-8.64-1.94-2.43-1.29-4.42-3.03-5.96-5.22-1.54-2.19-2.68-4.71-3.42-7.58s-1.11-5.87-1.11-9.01.35-6.17,1.06-9.1c.71-2.92,1.83-5.5,3.37-7.72,1.54-2.22,3.54-4,6.01-5.36,2.46-1.35,5.42-2.03,8.87-2.03,3.14,0,6.08.68,8.82,2.03,2.74,1.36,4.82,3.51,6.24,6.47v-7.58h21.9v42.97ZM122.98,43.6c0-.98-.03-2.08-.09-3.28-.06-1.2-.28-2.31-.65-3.33s-.92-1.86-1.66-2.54c-.74-.68-1.79-1.02-3.14-1.02s-2.3.36-3,1.06-1.23,1.59-1.57,2.63c-.34,1.05-.55,2.16-.65,3.33-.09,1.17-.14,2.22-.14,3.14s.05,1.96.14,3.1c.09,1.14.32,2.19.69,3.14.37.96.91,1.77,1.62,2.45.71.68,1.68,1.02,2.91,1.02s2.31-.31,3.05-.92c.74-.61,1.29-1.42,1.66-2.4.37-.98.6-2.03.69-3.14.09-1.11.14-2.19.14-3.23Z" fill="#e56e28"/>
  <path d="M147.61,14.12V.54h22.27v13.58h-22.27ZM147.61,67.16V20.13h22.27v47.03h-22.27Z" fill="#e56e28"/>
  <path d="M210.99,64.79c-2.53.74-5.11,1.31-7.76,1.71-2.65.4-5.27.6-7.85.6-6.16,0-10.53-1.56-13.12-4.67-2.59-3.11-3.88-7.62-3.88-13.54v-16.45h-7.85v-13.4h7.85v-7.95l22.27-6.93v14.88h10.07v13.4h-10.07v14.04c0,1.79.34,3.23,1.02,4.34.68,1.11,2,1.66,3.97,1.66,1.72,0,3.33-.28,4.8-.83l.55,13.12Z" fill="#e56e28"/>
  <path d="M242.14,67.16l-.28-6.84c-1.97,2.28-4.24,4.16-6.79,5.64-2.56,1.48-5.41,2.22-8.55,2.22-2.22,0-4.34-.26-6.38-.79s-3.82-1.35-5.36-2.49c-1.54-1.14-2.76-2.59-3.65-4.34-.89-1.76-1.34-3.87-1.34-6.33,0-3.2.72-5.91,2.17-8.13,1.45-2.22,3.31-3.99,5.59-5.31,2.28-1.32,4.83-2.28,7.67-2.86,2.83-.58,5.67-.88,8.5-.88,1.48,0,2.9.06,4.25.18,1.35.12,2.77.25,4.25.37v-.55c0-1.35-.34-2.43-1.02-3.23-.68-.8-1.57-1.42-2.68-1.85-1.11-.43-2.34-.69-3.7-.79-1.36-.09-2.71-.14-4.07-.14-2.34,0-4.88.31-7.62.92-2.74.62-5.28,1.54-7.62,2.77l-.55-12.75c3.14-.8,6.41-1.46,9.79-1.99,3.39-.52,6.71-.79,9.98-.79,3.51,0,6.98.22,10.4.65,3.42.43,6.48,1.33,9.19,2.68,2.71,1.36,4.9,3.31,6.56,5.87,1.66,2.56,2.49,5.96,2.49,10.21v20.42c0,1.23.01,2.33.05,3.28.03.96.06,1.82.09,2.59.03.77.08,1.52.14,2.26h-21.53ZM242.24,46.65h-2.22c-.92,0-1.96.06-3.1.18-1.14.12-2.22.4-3.23.83-1.02.43-1.86,1.02-2.54,1.76-.68.74-1.02,1.69-1.02,2.86,0,.8.17,1.46.51,1.99.34.52.77.94,1.29,1.25.52.31,1.08.52,1.66.65.58.12,1.16.19,1.71.19,2.28,0,4-.85,5.17-2.54,1.17-1.69,1.76-3.56,1.76-5.59v-1.57Z" fill="#e56e28"/>
  <path d="M266.46,67.16V.54h22.27v66.62h-22.27Z" fill="#e56e28"/>
  <path d="M357,66.2l-.09-48.42-12.38,48.42h-19.68l-12.38-48.42v48.42h-20.33V4.57h34.83l8.41,36.41,8.04-36.41h34.74v61.63h-21.16Z" fill="#26408e"/>
  <path d="M399.59,49.05c.06,1.6.49,2.9,1.29,3.88.8.99,1.82,1.73,3.05,2.22,1.23.49,2.56.82,3.97.97,1.42.15,2.74.23,3.97.23,2.59,0,5.2-.19,7.85-.55,2.65-.37,5.14-1.17,7.48-2.4l.55,12.1c-3.33,1.05-6.87,1.76-10.63,2.12-3.76.37-7.39.55-10.9.55-4.13,0-7.92-.45-11.36-1.34-3.45-.89-6.42-2.34-8.92-4.34-2.49-2-4.44-4.57-5.82-7.72-1.39-3.14-2.08-6.93-2.08-11.37s.72-7.9,2.17-10.95c1.45-3.05,3.4-5.56,5.87-7.53,2.46-1.97,5.36-3.42,8.69-4.34,3.33-.92,6.87-1.39,10.63-1.39,4.44,0,8.24.62,11.41,1.85,3.17,1.23,5.74,3,7.72,5.31,1.97,2.31,3.42,5.13,4.34,8.45.92,3.33,1.39,7.11,1.39,11.37v2.86h-30.68ZM411.05,39.44c0-.92-.06-1.92-.19-3-.12-1.08-.39-2.05-.79-2.91-.4-.86-.97-1.59-1.71-2.17-.74-.58-1.73-.88-2.96-.88-1.29,0-2.33.28-3.1.83-.77.55-1.37,1.26-1.8,2.12-.43.86-.71,1.83-.83,2.91-.12,1.08-.19,2.11-.19,3.1h11.55Z" fill="#26408e"/>
  <path d="M465.33,66.62l-.28-7.48c-1.42,2.96-3.5,5.11-6.24,6.47-2.74,1.35-5.68,2.03-8.82,2.03-3.76,0-6.95-.66-9.56-1.99-2.62-1.32-4.74-3.11-6.38-5.36-1.63-2.25-2.82-4.88-3.56-7.9-.74-3.02-1.11-6.19-1.11-9.52,0-3.14.38-6.17,1.15-9.1.77-2.92,1.96-5.5,3.56-7.72,1.6-2.22,3.66-4,6.19-5.36,2.52-1.35,5.54-2.03,9.06-2.03,2.96,0,5.74.73,8.36,2.17,2.62,1.45,4.51,3.56,5.68,6.33V0h22.27v56.27c0,2.9.03,5.08.09,6.56.06,1.48.15,2.74.28,3.79h-20.7ZM463.95,43.06c0-.98-.03-2.08-.09-3.28-.06-1.2-.28-2.31-.65-3.33s-.92-1.86-1.66-2.54c-.74-.68-1.79-1.02-3.14-1.02s-2.3.36-3,1.06-1.23,1.59-1.57,2.63c-.34,1.05-.55,2.16-.65,3.33-.09,1.17-.14,2.22-.14,3.14,0,.99.03,2.1.09,3.33.06,1.23.28,2.4.65,3.51.37,1.11.92,2.03,1.66,2.77.74.74,1.79,1.11,3.14,1.11s2.29-.38,3-1.15c.71-.77,1.25-1.71,1.62-2.82.37-1.11.58-2.28.65-3.51.06-1.23.09-2.31.09-3.23Z" fill="#26408e"/>
  <path d="M489.05,13.58V0h22.27v13.58h-22.27ZM489.05,66.62V19.59h22.27v47.03h-22.27Z" fill="#26408e"/>
  <path d="M544.01,67.16l-.28-6.84c-1.97,2.28-4.24,4.16-6.79,5.64-2.56,1.48-5.41,2.22-8.55,2.22-2.22,0-4.34-.26-6.38-.79s-3.82-1.35-5.36-2.49c-1.54-1.14-2.76-2.59-3.65-4.34-.89-1.76-1.34-3.87-1.34-6.33,0-3.2.72-5.91,2.17-8.13,1.45-2.22,3.31-3.99,5.59-5.31,2.28-1.32,4.83-2.28,7.67-2.86,2.83-.58,5.67-.88,8.5-.88,1.48,0,2.9.06,4.25.18,1.35.12,2.77.25,4.25.37v-.55c0-1.35-.34-2.43-1.02-3.23-.68-.8-1.57-1.42-2.68-1.85-1.11-.43-2.34-.69-3.7-.79-1.36-.09-2.71-.14-4.07-.14-2.34,0-4.88.31-7.62.92-2.74.62-5.28,1.54-7.62,2.77l-.55-12.75c3.14-.8,6.41-1.46,9.79-1.99,3.39-.52,6.71-.79,9.98-.79,3.51,0,6.98.22,10.4.65,3.42.43,6.48,1.33,9.19,2.68,2.71,1.36,4.9,3.31,6.56,5.87,1.66,2.56,2.49,5.96,2.49,10.21v20.42c0,1.23.01,2.33.05,3.28.03.96.06,1.82.09,2.59.03.77.08,1.52.14,2.26h-21.53ZM544.1,46.65h-2.22c-.92,0-1.96.06-3.1.18-1.14.12-2.22.4-3.23.83-1.02.43-1.86,1.02-2.54,1.76-.68.74-1.02,1.69-1.02,2.86,0,.8.17,1.46.51,1.99.34.52.77.94,1.29,1.25.52.31,1.08.52,1.66.65.58.12,1.16.19,1.71.19,2.28,0,4-.85,5.17-2.54,1.17-1.69,1.76-3.56,1.76-5.59v-1.57Z" fill="#26408e"/>
  <path d="M164.15,95.85c-.72.33-1.54.56-2.46.7-.92.13-1.78.2-2.59.2-1.65,0-3.15-.24-4.5-.73-1.34-.49-2.49-1.19-3.44-2.11-.95-.92-1.69-2.04-2.22-3.36-.53-1.32-.79-2.81-.79-4.46s.27-3.01.82-4.32c.55-1.31,1.31-2.44,2.28-3.38.97-.94,2.12-1.67,3.46-2.19s2.79-.77,4.39-.77c.79,0,1.63.06,2.54.19.91.12,1.73.32,2.45.59l-.19,2.73c-.64-.29-1.36-.51-2.15-.65-.8-.14-1.56-.22-2.28-.22-1.22,0-2.31.2-3.27.6-.96.4-1.77.96-2.43,1.67-.66.71-1.17,1.56-1.53,2.54-.36.98-.54,2.05-.54,3.21s.17,2.29.51,3.27c.34.98.84,1.82,1.5,2.53.66.7,1.47,1.25,2.42,1.64.95.39,2.05.59,3.29.59.79,0,1.57-.07,2.34-.2.77-.13,1.51-.37,2.22-.7l.19,2.63Z" fill="#26408e"/>
  <path d="M189.86,85.96c0,1.51-.21,2.91-.62,4.2-.41,1.29-1.02,2.42-1.83,3.38-.81.96-1.81,1.72-3.02,2.26s-2.61.82-4.2.82-3.02-.27-4.23-.81-2.22-1.28-3.02-2.23c-.81-.95-1.41-2.08-1.81-3.38-.4-1.3-.6-2.72-.6-4.25s.21-2.88.62-4.17c.41-1.29,1.03-2.42,1.84-3.38.82-.96,1.82-1.72,3.02-2.28,1.2-.56,2.59-.84,4.19-.84s3.02.27,4.23.81c1.21.54,2.22,1.28,3.02,2.23.81.95,1.41,2.08,1.81,3.38.4,1.3.6,2.72.6,4.25ZM186.33,85.96c0-.97-.11-1.94-.33-2.9-.22-.96-.57-1.83-1.05-2.6-.49-.77-1.12-1.4-1.89-1.89-.77-.49-1.73-.73-2.87-.73s-2.06.25-2.84.74c-.78.5-1.41,1.13-1.89,1.91-.49.77-.84,1.64-1.07,2.6s-.34,1.92-.34,2.87.11,1.91.34,2.87.59,1.83,1.09,2.6c.5.77,1.13,1.41,1.91,1.91.77.5,1.71.74,2.81.74s2.09-.24,2.87-.73c.78-.49,1.41-1.12,1.89-1.89.49-.78.84-1.64,1.05-2.6.22-.96.33-1.93.33-2.9Z" fill="#26408e"/>
  <path d="M197.77,96.4v-20.68h3.35v17.89h8.59v2.79h-11.94Z" fill="#26408e"/>
  <path d="M217.3,96.28v-20.68h3.35v17.89h8.59v2.79h-11.94Z" fill="#26408e"/>
  <path d="M236.49,96.28v-20.68h11.9v2.51h-8.56v6.35h8.15v2.48h-8.15v6.82h8.87v2.51h-12.21Z" fill="#26408e"/>
  <path d="M272.77,95.04c-1.12.43-2.25.75-3.39.96-1.15.21-2.32.31-3.52.31-1.65,0-3.15-.24-4.5-.73-1.34-.49-2.49-1.19-3.44-2.11-.95-.92-1.69-2.04-2.22-3.36-.53-1.32-.79-2.81-.79-4.46s.27-3.04.82-4.36c.55-1.31,1.31-2.43,2.29-3.36.98-.93,2.14-1.65,3.47-2.17s2.79-.77,4.39-.77c.95,0,1.96.07,3.02.22,1.06.15,2.04.39,2.93.74l-.19,2.76c-.81-.43-1.66-.73-2.57-.9-.91-.17-1.82-.25-2.73-.25-1.22,0-2.32.2-3.3.59-.98.39-1.81.95-2.5,1.66-.68.71-1.2,1.57-1.57,2.56-.36.99-.54,2.09-.54,3.29s.16,2.23.48,3.21c.32.98.79,1.83,1.41,2.56.62.72,1.4,1.29,2.32,1.69.93.4,2,.6,3.22.6.64,0,1.28-.05,1.92-.14.64-.09,1.26-.25,1.86-.48v-5.74h-3.72v-2.39h6.82v10.07Z" fill="#26408e"/>
  <path d="M282.46,96.4v-20.68h11.9v2.51h-8.56v6.35h8.15v2.48h-8.15v6.82h8.87v2.51h-12.21Z" fill="#26408e"/>
  <path d="M329.63,86.22c0,1.51-.21,2.91-.62,4.2-.41,1.29-1.02,2.42-1.83,3.38-.81.96-1.81,1.72-3.02,2.26s-2.61.82-4.2.82-3.02-.27-4.23-.81-2.22-1.28-3.02-2.23c-.81-.95-1.41-2.08-1.81-3.38-.4-1.3-.6-2.72-.6-4.25s.21-2.88.62-4.17c.41-1.29,1.03-2.42,1.84-3.38.82-.96,1.82-1.72,3.02-2.28,1.2-.56,2.59-.84,4.19-.84s3.02.27,4.23.81c1.21.54,2.22,1.28,3.02,2.23.81.95,1.41,2.08,1.81,3.38.4,1.3.6,2.72.6,4.25ZM326.1,86.22c0-.97-.11-1.94-.33-2.9-.22-.96-.57-1.83-1.05-2.6-.49-.77-1.12-1.4-1.89-1.89-.77-.49-1.73-.73-2.87-.73s-2.06.25-2.84.74c-.78.5-1.41,1.13-1.89,1.91-.49.77-.84,1.64-1.07,2.6s-.34,1.92-.34,2.87.11,1.91.34,2.87.59,1.83,1.09,2.6c.5.77,1.13,1.41,1.91,1.91.77.5,1.71.74,2.81.74s2.09-.24,2.87-.73c.78-.49,1.41-1.12,1.89-1.89.49-.78.84-1.64,1.05-2.6.22-.96.33-1.93.33-2.9Z" fill="#26408e"/>
  <path d="M340.21,78.12v6.51h7.87v2.45h-7.87v9.21h-3.35v-20.68h11.56v2.51h-8.21Z" fill="#26408e"/>
  <path d="M378.46,91.02c0,1.03-.21,1.93-.64,2.7-.42.77-.98,1.4-1.67,1.89-.69.5-1.49.87-2.4,1.12-.91.25-1.85.37-2.82.37s-1.9-.07-2.84-.2c-.94-.13-1.85-.37-2.74-.7l.15-2.88c.81.45,1.65.77,2.53.96.88.19,1.78.28,2.71.28.56,0,1.1-.06,1.61-.19.52-.12.97-.33,1.36-.6.39-.28.71-.64.95-1.07.24-.43.36-.96.36-1.58,0-.43-.11-.82-.33-1.16-.22-.34-.51-.65-.87-.93-.36-.28-.76-.53-1.19-.76-.43-.23-.87-.45-1.3-.68l-2.11-1.05c-.56-.27-1.08-.56-1.57-.88-.49-.32-.91-.68-1.27-1.09-.36-.4-.65-.86-.85-1.38-.21-.52-.31-1.1-.31-1.77,0-1.01.23-1.88.68-2.59s1.04-1.3,1.77-1.75c.72-.45,1.53-.79,2.42-.99.89-.21,1.78-.31,2.67-.31.79,0,1.57.05,2.34.15.78.1,1.53.27,2.28.5l-.19,2.73c-.64-.31-1.35-.53-2.12-.65-.77-.12-1.5-.19-2.21-.19-.5,0-1,.05-1.51.14-.51.09-.97.25-1.38.48-.41.23-.75.53-1.01.9-.26.37-.39.85-.39,1.43,0,.39.09.74.28,1.04.19.3.42.57.71.82s.63.47,1.01.67c.38.2.76.39,1.13.57l2.21,1.05c.62.29,1.21.6,1.76.95.55.34,1.03.73,1.45,1.16.41.43.74.94.98,1.5s.36,1.23.36,2Z" fill="#26408e"/>
  <path d="M400.68,96.29l-1.98-5.42h-9.58l-2.05,5.42h-3.29l8.06-20.68h4.25l8.12,20.68h-3.53ZM393.92,78l-3.97,10.39h7.91l-3.94-10.39Z" fill="#26408e"/>
  <path d="M423.15,96.45l-8.96-17.61v17.61h-3.04v-20.68h4.83l8.94,17.61v-17.61h3.1v20.68h-4.87Z" fill="#26408e"/>
  <path d="M468.37,96.45v-18.26l-6.79,18.26h-3.07l-6.82-18.26v18.26h-3.04v-20.68h5.08l6.39,16.99,6.32-16.99h5.12v20.68h-3.19Z" fill="#26408e"/>
  <path d="M495.25,96.6l-1.98-5.42h-9.58l-2.05,5.42h-3.29l8.06-20.68h4.25l8.12,20.68h-3.53ZM488.49,78.31l-3.97,10.39h7.91l-3.94-10.39Z" fill="#26408e"/>
  <path d="M511.39,78.87v17.89h-3.35v-17.89h-6.29v-2.79h15.96v2.79h-6.32Z" fill="#26408e"/>
  <path d="M524.63,96.6v-20.68h11.9v2.51h-8.56v6.35h8.15v2.48h-8.15v6.82h8.87v2.51h-12.21Z" fill="#26408e"/>
  <path d="M563.37,85.81c0,1.51-.21,2.91-.62,4.2-.41,1.29-1.02,2.42-1.83,3.38-.81.96-1.81,1.72-3.02,2.26s-2.61.82-4.2.82-3.02-.27-4.23-.81-2.22-1.28-3.02-2.23c-.81-.95-1.41-2.08-1.81-3.38-.4-1.3-.6-2.72-.6-4.25s.21-2.88.62-4.17c.41-1.29,1.03-2.42,1.84-3.38.82-.96,1.82-1.72,3.02-2.28,1.2-.56,2.59-.84,4.19-.84s3.02.27,4.23.81c1.21.54,2.22,1.28,3.02,2.23.81.95,1.41,2.08,1.81,3.38.4,1.3.6,2.72.6,4.25ZM559.84,85.81c0-.97-.11-1.94-.33-2.9-.22-.96-.57-1.83-1.05-2.6-.49-.77-1.12-1.4-1.89-1.89-.77-.49-1.73-.73-2.87-.73s-2.06.25-2.84.74c-.78.5-1.41,1.13-1.89,1.91-.49.77-.84,1.64-1.07,2.6s-.34,1.92-.34,2.87.11,1.91.34,2.87.59,1.83,1.09,2.6c.5.77,1.13,1.41,1.91,1.91.77.5,1.71.74,2.81.74s2.09-.24,2.87-.73c.78-.49,1.41-1.12,1.89-1.89.49-.78.84-1.64,1.05-2.6.22-.96.33-1.93.33-2.9Z" fill="#26408e"/>
</svg>