<?xml version="1.0" encoding="UTF-8"?>
<svg id="Layer_1" data-name="Layer 1" xmlns="http://www.w3.org/2000/svg" viewBox="0 0 30.51 5.24">
  <defs>
    <style>
      .cls-1 {
        fill: #e56e28;
      }

      .cls-2 {
        fill: #26408e;
      }
    </style>
  </defs>
  <path class="cls-1" d="M3.49,1.93c0,.26-.04.5-.12.7-.08.21-.19.38-.34.52s-.32.25-.53.32c-.21.07-.45.11-.71.11H0V.27h1.8c.54,0,.96.14,1.26.41.29.27.44.69.44,1.25ZM2.16,1.93c0-.1,0-.21-.02-.31-.02-.1-.05-.19-.09-.28-.04-.08-.11-.15-.19-.2-.08-.05-.18-.08-.3-.08h-.27v1.72h.26c.12,0,.22-.02.3-.07.08-.05.14-.11.19-.19.05-.08.08-.17.1-.27.02-.1.03-.21.03-.31h0Z"/>
  <path class="cls-1" d="M3.54.73v-.73h1.2v.73h-1.2ZM3.54,3.59V1.06h1.2v2.54s-1.2,0-1.2,0Z"/>
  <path class="cls-1" d="M7.81,3.4c0,.25-.04.46-.12.63s-.2.31-.34.42c-.15.11-.32.18-.51.23s-.41.07-.63.07c-.21,0-.41,0-.61-.03-.2-.02-.4-.06-.6-.11l.03-.79c.24.13.52.2.83.2.24,0,.43-.05.56-.14.14-.09.2-.25.2-.48v-.19c-.1.13-.22.23-.35.3-.13.07-.28.1-.45.1-.18,0-.34-.04-.47-.1s-.24-.16-.32-.28c-.08-.12-.14-.25-.18-.41s-.06-.32-.06-.49.02-.33.06-.49c.04-.16.1-.3.18-.42s.19-.22.32-.29c.13-.07.29-.11.48-.11.17,0,.33.04.48.11.15.07.26.19.34.35v-.41h1.18v2.32h0ZM6.64,2.35c0-.05,0-.11,0-.18,0-.06-.02-.12-.04-.18s-.05-.1-.09-.14c-.04-.04-.1-.06-.17-.06s-.12.02-.16.06-.07.09-.08.14c-.02.06-.03.12-.04.18,0,.06,0,.12,0,.17s0,.11,0,.17.02.12.04.17c.02.05.05.1.09.13s.09.06.16.06.12-.02.16-.05c.04-.03.07-.08.09-.13.02-.05.03-.11.04-.17,0-.06,0-.12,0-.17h0Z"/>
  <path class="cls-1" d="M7.96.76V.03h1.2v.73h-1.2ZM7.96,3.62V1.09h1.2v2.54s-1.2,0-1.2,0Z"/>
  <path class="cls-1" d="M11.38,3.5c-.14.04-.28.07-.42.09s-.28.03-.42.03c-.33,0-.57-.08-.71-.25s-.21-.41-.21-.73v-.89h-.42v-.72h.42v-.43l1.2-.37v.8h.54v.72h-.54v.76c0,.1.02.17.06.23.04.06.11.09.21.09.09,0,.18-.02.26-.04l.03.71h0Z"/>
  <path class="cls-1" d="M13.06,3.62l-.02-.37c-.11.12-.23.22-.37.3-.14.08-.29.12-.46.12-.12,0-.23-.01-.34-.04s-.21-.07-.29-.13-.15-.14-.2-.23c-.05-.09-.07-.21-.07-.34,0-.17.04-.32.12-.44s.18-.22.3-.29.26-.12.41-.15c.15-.03.31-.05.46-.05.08,0,.16,0,.23,0s.15.01.23.02v-.03c0-.07-.02-.13-.06-.17-.04-.04-.08-.08-.14-.1-.06-.02-.13-.04-.2-.04-.07,0-.15,0-.22,0-.13,0-.26.02-.41.05-.15.03-.28.08-.41.15l-.03-.69c.17-.04.35-.08.53-.11.18-.03.36-.04.54-.04.19,0,.38.01.56.04s.35.07.5.14c.15.07.26.18.35.32s.13.32.13.55v1.1c0,.07,0,.13,0,.18,0,.05,0,.1,0,.14s0,.08,0,.12h-1.16,0ZM13.07,2.52h-.12s-.11,0-.17,0-.12.02-.17.04c-.06.02-.1.06-.14.09-.04.04-.06.09-.06.15,0,.04,0,.08.03.11.02.03.04.05.07.07.03.02.06.03.09.04.03,0,.06.01.09.01.12,0,.22-.05.28-.14.06-.09.09-.19.09-.3v-.08h0Z"/>
  <path class="cls-1" d="M14.38,3.62V.03h1.2v3.59h-1.2Z"/>
  <path class="cls-2" d="M19.26,3.57V.96s-.67,2.61-.67,2.61h-1.06l-.67-2.61v2.61h-1.1V.25h1.88l.45,1.96.43-1.96h1.87v3.33h-1.14Z"/>
  <path class="cls-2" d="M21.56,2.65c0,.09.03.16.07.21.04.05.1.09.16.12.07.03.14.04.21.05.08,0,.15.01.21.01.14,0,.28-.01.42-.03.14-.02.28-.06.4-.13l.03.65c-.18.06-.37.09-.57.11-.2.02-.4.03-.59.03-.22,0-.43-.02-.61-.07-.19-.05-.35-.13-.48-.23-.13-.11-.24-.25-.31-.42-.07-.17-.11-.37-.11-.61s.04-.43.12-.59.18-.3.32-.41c.13-.11.29-.18.47-.23.18-.05.37-.07.57-.07.24,0,.44.03.62.1s.31.16.42.29c.11.12.18.28.23.46.05.18.07.38.07.61v.15h-1.66,0ZM22.18,2.13s0-.1-.01-.16c0-.06-.02-.11-.04-.16s-.05-.09-.09-.12-.09-.05-.16-.05-.13.02-.17.04c-.04.03-.07.07-.1.11s-.04.1-.04.16c0,.06-.01.11-.01.17h.62Z"/>
  <path class="cls-2" d="M25.11,3.59l-.02-.4c-.08.16-.19.28-.34.35-.15.07-.31.11-.48.11-.2,0-.37-.04-.52-.11-.14-.07-.26-.17-.34-.29-.09-.12-.15-.26-.19-.43s-.06-.33-.06-.51c0-.17.02-.33.06-.49.04-.16.11-.3.19-.42s.2-.22.33-.29c.14-.07.3-.11.49-.11.16,0,.31.04.45.12.14.08.24.19.31.34V0h1.2v3.04c0,.16,0,.27,0,.35s0,.15.02.2h-1.12,0ZM25.03,2.32c0-.05,0-.11,0-.18s-.02-.12-.04-.18-.05-.1-.09-.14-.1-.06-.17-.06-.12.02-.16.06-.07.09-.08.14c-.02.06-.03.12-.04.18,0,.06,0,.12,0,.17,0,.05,0,.11,0,.18,0,.07.02.13.04.19.02.06.05.11.09.15s.1.06.17.06.12-.02.16-.06.07-.09.09-.15.03-.12.04-.19c0-.07,0-.12,0-.17h0Z"/>
  <path class="cls-2" d="M26.39.73v-.73h1.2v.73h-1.2ZM26.39,3.59V1.06h1.2v2.54s-1.2,0-1.2,0Z"/>
  <path class="cls-2" d="M29.35,3.62l-.02-.37c-.11.12-.23.22-.37.3-.14.08-.29.12-.46.12-.12,0-.23-.01-.34-.04s-.21-.07-.29-.13-.15-.14-.2-.23c-.05-.09-.07-.21-.07-.34,0-.17.04-.32.12-.44s.18-.22.3-.29.26-.12.41-.15c.15-.03.31-.05.46-.05.08,0,.16,0,.23,0s.15.01.23.02v-.03c0-.07-.02-.13-.06-.17s-.08-.08-.14-.1c-.06-.02-.13-.04-.2-.04-.07,0-.15,0-.22,0-.13,0-.26.02-.41.05-.15.03-.28.08-.41.15l-.03-.69c.17-.04.35-.08.53-.11.18-.03.36-.04.54-.04.19,0,.38.01.56.04.18.02.35.07.5.14.15.07.26.18.35.32s.13.32.13.55v1.1c0,.07,0,.13,0,.18,0,.05,0,.1,0,.14s0,.08,0,.12h-1.16,0ZM29.36,2.52h-.12s-.11,0-.17,0c-.06,0-.12.02-.17.04-.06.02-.1.06-.14.09-.04.04-.06.09-.06.15,0,.04,0,.08.03.11.02.03.04.05.07.07.03.02.06.03.09.04.03,0,.06.01.09.01.12,0,.22-.05.28-.14.06-.09.09-.19.09-.3v-.08h0Z"/>
  <path class="cls-2" d="M8.86,5.17s-.08.03-.13.04c-.05,0-.1.01-.14.01-.09,0-.17-.01-.24-.04-.07-.03-.13-.06-.19-.11s-.09-.11-.12-.18-.04-.15-.04-.24.01-.16.04-.23.07-.13.12-.18c.05-.05.11-.09.19-.12s.15-.04.24-.04c.04,0,.09,0,.14.01.05,0,.09.02.13.03v.15s-.08-.03-.13-.04c-.04,0-.08-.01-.12-.01-.07,0-.12.01-.18.03s-.1.05-.13.09c-.04.04-.06.08-.08.14s-.03.11-.03.17,0,.12.03.18c.02.05.05.1.08.14.04.04.08.07.13.09s.11.03.18.03c.04,0,.08,0,.13-.01.04,0,.08-.02.12-.04v.14s0,0,0,0Z"/>
  <path class="cls-2" d="M10.24,4.64c0,.08-.01.16-.03.23-.02.07-.06.13-.1.18s-.1.09-.16.12-.14.04-.23.04-.16-.01-.23-.04-.12-.07-.16-.12c-.04-.05-.08-.11-.1-.18-.02-.07-.03-.15-.03-.23s.01-.16.03-.22c.02-.07.06-.13.1-.18.04-.05.1-.09.16-.12s.14-.05.23-.05.16.01.23.04c.07.03.12.07.16.12.04.05.08.11.1.18.02.07.03.15.03.23h0ZM10.05,4.64c0-.05,0-.1-.02-.16s-.03-.1-.06-.14c-.03-.04-.06-.08-.1-.1s-.09-.04-.15-.04-.11.01-.15.04c-.04.03-.08.06-.1.1-.03.04-.05.09-.06.14s-.02.1-.02.15,0,.1.02.15.03.1.06.14.06.08.1.1c.04.03.09.04.15.04s.11-.01.15-.04c.04-.03.08-.06.1-.1.03-.04.05-.09.06-.14.01-.05.02-.1.02-.16h0Z"/>
  <path class="cls-2" d="M10.67,5.2v-1.12h.18v.97h.46v.15h-.64Z"/>
  <path class="cls-2" d="M11.72,5.19v-1.12h.18v.97h.46v.15h-.64Z"/>
  <path class="cls-2" d="M12.76,5.19v-1.12h.64v.14h-.46v.34h.44v.13h-.44v.37h.48v.14h-.66,0Z"/>
  <path class="cls-2" d="M14.72,5.13c-.06.02-.12.04-.18.05-.06.01-.13.02-.19.02-.09,0-.17-.01-.24-.04-.07-.03-.13-.06-.19-.11s-.09-.11-.12-.18-.04-.15-.04-.24.01-.16.04-.24c.03-.07.07-.13.12-.18.05-.05.12-.09.19-.12s.15-.04.24-.04c.05,0,.11,0,.16.01s.11.02.16.04v.15c-.05-.02-.1-.04-.15-.05s-.1-.01-.15-.01c-.07,0-.13.01-.18.03-.05.02-.1.05-.13.09-.04.04-.06.08-.08.14-.02.05-.03.11-.03.18s0,.12.03.17c.02.05.04.1.08.14.03.04.08.07.13.09.05.02.11.03.17.03.03,0,.07,0,.1,0s.07-.01.1-.03v-.31h-.2v-.13h.37v.54h0Z"/>
  <path class="cls-2" d="M15.24,5.2v-1.12h.64v.14h-.46v.34h.44v.13h-.44v.37h.48v.14h-.66Z"/>
  <path class="cls-2" d="M17.79,4.65c0,.08-.01.16-.03.23-.02.07-.06.13-.1.18s-.1.09-.16.12-.14.04-.23.04-.16-.01-.23-.04-.12-.07-.16-.12c-.04-.05-.08-.11-.1-.18-.02-.07-.03-.15-.03-.23s.01-.16.03-.22.06-.13.1-.18c.04-.05.1-.09.16-.12.06-.03.14-.05.23-.05s.16.01.23.04c.07.03.12.07.16.12.04.05.08.11.1.18.02.07.03.15.03.23h0ZM17.59,4.65c0-.05,0-.1-.02-.16s-.03-.1-.06-.14c-.03-.04-.06-.08-.1-.1-.04-.03-.09-.04-.15-.04s-.11.01-.15.04c-.04.03-.08.06-.1.1-.03.04-.05.09-.06.14s-.02.1-.02.15,0,.1.02.15.03.1.06.14.06.08.1.1c.04.03.09.04.15.04s.11-.01.15-.04c.04-.03.08-.06.1-.1.03-.04.05-.09.06-.14.01-.05.02-.1.02-.16h0Z"/>
  <path class="cls-2" d="M18.36,4.22v.35h.42v.13h-.42v.5h-.18v-1.12h.62v.14h-.44Z"/>
  <path class="cls-2" d="M20.42,4.91c0,.06-.01.1-.03.15-.02.04-.05.08-.09.1-.04.03-.08.05-.13.06s-.1.02-.15.02-.1,0-.15-.01-.1-.02-.15-.04v-.16c.05.02.1.04.14.05s.1.02.15.02c.03,0,.06,0,.09-.01.03,0,.05-.02.07-.03.02-.02.04-.03.05-.06.01-.02.02-.05.02-.09,0-.02,0-.04-.02-.06-.01-.02-.03-.04-.05-.05s-.04-.03-.06-.04-.05-.02-.07-.04l-.11-.06s-.06-.03-.08-.05c-.03-.02-.05-.04-.07-.06-.02-.02-.04-.05-.05-.07-.01-.03-.02-.06-.02-.1,0-.05.01-.1.04-.14s.06-.07.1-.09c.04-.02.08-.04.13-.05.05-.01.1-.02.14-.02.04,0,.08,0,.13,0,.04,0,.08.01.12.03v.15s-.08-.03-.12-.04-.08-.01-.12-.01c-.03,0-.05,0-.08,0s-.05.01-.07.03-.04.03-.05.05-.02.05-.02.08c0,.02,0,.04.02.06s.02.03.04.04.03.03.05.04.04.02.06.03l.12.06s.07.03.09.05c.03.02.06.04.08.06.02.02.04.05.05.08s.02.07.02.11h0Z"/>
  <path class="cls-2" d="M21.62,5.2l-.11-.29h-.52l-.11.29h-.18l.43-1.12h.23l.44,1.12h-.19ZM21.25,4.21l-.21.56h.43l-.21-.56Z"/>
  <path class="cls-2" d="M22.83,5.2l-.48-.95v.95h-.16v-1.12h.26l.48.95v-.95h.17v1.12h-.26Z"/>
  <path class="cls-2" d="M25.27,5.2v-.99l-.37.99h-.17l-.37-.99v.99h-.16v-1.12h.27l.34.92.34-.92h.28v1.12h-.17,0Z"/>
  <path class="cls-2" d="M26.72,5.21l-.11-.29h-.52l-.11.29h-.18l.43-1.12h.23l.44,1.12h-.19ZM26.36,4.23l-.21.56h.43l-.21-.56Z"/>
  <path class="cls-2" d="M27.59,4.26v.97h-.18v-.97h-.34v-.15h.86v.15h-.34Z"/>
  <path class="cls-2" d="M28.31,5.21v-1.12h.64v.14h-.46v.34h.44v.13h-.44v.37h.48v.14h-.66Z"/>
  <path class="cls-2" d="M30.4,4.63c0,.08-.01.16-.03.23-.02.07-.06.13-.1.18s-.1.09-.16.12-.14.04-.23.04-.16-.01-.23-.04-.12-.07-.16-.12c-.04-.05-.08-.11-.1-.18-.02-.07-.03-.15-.03-.23s.01-.16.03-.22.06-.13.1-.18c.04-.05.1-.09.16-.12s.14-.05.23-.05.16.01.23.04c.07.03.12.07.16.12.04.05.08.11.1.18.02.07.03.15.03.23h0ZM30.21,4.63c0-.05,0-.1-.02-.16-.01-.05-.03-.1-.06-.14-.03-.04-.06-.08-.1-.1s-.09-.04-.15-.04-.11.01-.15.04c-.04.03-.08.06-.1.1-.03.04-.05.09-.06.14s-.02.1-.02.15,0,.1.02.15.03.1.06.14.06.08.1.1c.04.03.09.04.15.04s.11-.01.15-.04c.04-.03.08-.06.1-.1.03-.04.05-.09.06-.14.01-.05.02-.1.02-.16h0Z"/>
</svg>